STARTFONT 2.1
COMMENT
COMMENT Converted from OpenType font "Px437_Wyse700a.ttf" by "otf2bdf\otf2bdf 3.0".
COMMENT
FONT -FreeType-Px437 Wyse700a-Medium-R-Normal--16-160-72-72-P-131-ISO10646-1
SIZE 16 72 72
FONTBOUNDINGBOX 16 16 0 -3
STARTPROPERTIES 19
FOUNDRY "FreeType"
FAMILY_NAME "Px437 Wyse700a"
WEIGHT_NAME "Medium"
SLANT "R"
SETWIDTH_NAME "Normal"
ADD_STYLE_NAME ""
PIXEL_SIZE 16
POINT_SIZE 160
RESOLUTION_X 72
RESOLUTION_Y 72
SPACING "P"
AVERAGE_WIDTH 131
CHARSET_REGISTRY "ISO10646"
CHARSET_ENCODING "1"
FONT_ASCENT 13
FONT_DESCENT 3
COPYRIGHT "Outline (vector) version (c) 2015 VileR"
_OTF_FONTFILE "Px437_Wyse700a.ttf"
_OTF_PSNAME "Px437_Wyse700a"
ENDPROPERTIES
CHARS 288
STARTCHAR 0000
ENCODING 0
SWIDTH 1000 0
DWIDTH 16 0
BBX 0 0 0 0
BITMAP
ENDCHAR
STARTCHAR 0001
ENCODING 1
SWIDTH 1000 0
DWIDTH 16 0
BBX 16 11 0 0
BITMAP
3FFC
6006
C003
CC33
C003
C003
CFF3
C3C3
C003
6006
3FFC
ENDCHAR
STARTCHAR 0002
ENCODING 2
SWIDTH 1000 0
DWIDTH 16 0
BBX 16 11 0 0
BITMAP
3FFC
7FFE
FFFF
F3CF
FFFF
FFFF
F00F
FC3F
FFFF
7FFE
3FFC
ENDCHAR
STARTCHAR 0003
ENCODING 3
SWIDTH 1000 0
DWIDTH 16 0
BBX 14 9 1 1
BITMAP
3CF0
7FF8
FFFC
FFFC
FFFC
7FF8
3FF0
0FC0
0300
ENDCHAR
STARTCHAR 0004
ENCODING 4
SWIDTH 1000 0
DWIDTH 16 0
BBX 10 9 3 1
BITMAP
0C00
1E00
3F00
7F80
FFC0
7F80
3F00
1E00
0C00
ENDCHAR
STARTCHAR 0005
ENCODING 5
SWIDTH 1000 0
DWIDTH 16 0
BBX 14 11 1 0
BITMAP
0780
0FC0
0FC0
7878
F87C
F87C
7878
0780
0780
0780
1FE0
ENDCHAR
STARTCHAR 0006
ENCODING 6
SWIDTH 1000 0
DWIDTH 16 0
BBX 16 11 0 0
BITMAP
03C0
0FF0
3FFC
FFFF
FFFF
FFFF
3FFC
03C0
03C0
03C0
0FF0
ENDCHAR
STARTCHAR 0007
ENCODING 7
SWIDTH 1000 0
DWIDTH 16 0
BBX 8 4 4 3
BITMAP
3C
FF
FF
3C
ENDCHAR
STARTCHAR 0008
ENCODING 8
SWIDTH 1000 0
DWIDTH 16 0
BBX 16 16 0 -3
BITMAP
FFFF
FFFF
FFFF
FFFF
FFFF
FFFF
FC3F
F00F
F00F
FC3F
FFFF
FFFF
FFFF
FFFF
FFFF
FFFF
ENDCHAR
STARTCHAR 0009
ENCODING 9
SWIDTH 1000 0
DWIDTH 16 0
BBX 12 6 2 2
BITMAP
3FC0
F0F0
C030
C030
F0F0
3FC0
ENDCHAR
STARTCHAR 000A
ENCODING 10
SWIDTH 1000 0
DWIDTH 16 0
BBX 16 16 0 -3
BITMAP
FFFF
FFFF
FFFF
FFFF
FFFF
F00F
C3C3
CFF3
CFF3
C3C3
F00F
FFFF
FFFF
FFFF
FFFF
FFFF
ENDCHAR
STARTCHAR 000B
ENCODING 11
SWIDTH 1000 0
DWIDTH 16 0
BBX 14 10 2 0
BITMAP
01FC
007C
00FC
01EC
1FC0
79E0
F0F0
F0F0
79E0
1F80
ENDCHAR
STARTCHAR 000C
ENCODING 12
SWIDTH 1000 0
DWIDTH 16 0
BBX 12 11 2 0
BITMAP
1F80
79E0
F0F0
F0F0
79E0
1F80
0F00
0F00
FFF0
0F00
0F00
ENDCHAR
STARTCHAR 000D
ENCODING 13
SWIDTH 1000 0
DWIDTH 16 0
BBX 15 11 1 0
BITMAP
1FFE
1E1E
1FFE
1E00
1E00
1E00
1E00
1E00
7E00
FE00
7C00
ENDCHAR
STARTCHAR 000E
ENCODING 14
SWIDTH 1000 0
DWIDTH 16 0
BBX 14 12 1 -1
BITMAP
3FFC
3C3C
3FFC
3C3C
3C3C
3C3C
3C3C
3C3C
3C7C
7CFC
FC78
7800
ENDCHAR
STARTCHAR 000F
ENCODING 15
SWIDTH 1000 0
DWIDTH 16 0
BBX 16 9 0 1
BITMAP
03C0
03C0
F3CF
0FF0
FC3F
0FF0
F3CF
03C0
03C0
ENDCHAR
STARTCHAR 0010
ENCODING 16
SWIDTH 1000 0
DWIDTH 16 0
BBX 12 11 2 0
BITMAP
C000
F000
FC00
FF00
FFC0
FFF0
FFC0
FF00
FC00
F000
C000
ENDCHAR
STARTCHAR 0011
ENCODING 17
SWIDTH 1000 0
DWIDTH 16 0
BBX 12 11 2 0
BITMAP
0030
00F0
03F0
0FF0
3FF0
FFF0
3FF0
0FF0
03F0
00F0
0030
ENDCHAR
STARTCHAR 0012
ENCODING 18
SWIDTH 1000 0
DWIDTH 16 0
BBX 12 11 2 0
BITMAP
0F00
3FC0
FFF0
0F00
0F00
0F00
0F00
0F00
FFF0
3FC0
0F00
ENDCHAR
STARTCHAR 0013
ENCODING 19
SWIDTH 1000 0
DWIDTH 16 0
BBX 12 11 4 0
BITMAP
F0F0
F0F0
F0F0
F0F0
F0F0
F0F0
F0F0
F0F0
0000
F0F0
F0F0
ENDCHAR
STARTCHAR 0014
ENCODING 20
SWIDTH 1000 0
DWIDTH 16 0
BBX 16 11 0 0
BITMAP
3FFF
F3CF
F3CF
F3CF
F3CF
3FCF
03CF
03CF
03CF
03CF
03CF
ENDCHAR
STARTCHAR 0015
ENCODING 21
SWIDTH 1000 0
DWIDTH 16 0
BBX 14 12 2 0
BITMAP
3FF0
F03C
3C00
0FC0
3CF0
F03C
F03C
3CF0
0FC0
00F0
F03C
3FF0
ENDCHAR
STARTCHAR 0016
ENCODING 22
SWIDTH 1000 0
DWIDTH 16 0
BBX 14 3 2 0
BITMAP
FFFC
FFFC
FFFC
ENDCHAR
STARTCHAR 0017
ENCODING 23
SWIDTH 1000 0
DWIDTH 16 0
BBX 12 12 2 -1
BITMAP
0F00
3FC0
FFF0
0F00
0F00
0F00
0F00
0F00
FFF0
3FC0
0F00
FFF0
ENDCHAR
STARTCHAR 0018
ENCODING 24
SWIDTH 1000 0
DWIDTH 16 0
BBX 12 11 2 0
BITMAP
0F00
3FC0
FFF0
0F00
0F00
0F00
0F00
0F00
0F00
0F00
0F00
ENDCHAR
STARTCHAR 0019
ENCODING 25
SWIDTH 1000 0
DWIDTH 16 0
BBX 12 11 2 0
BITMAP
0F00
0F00
0F00
0F00
0F00
0F00
0F00
0F00
FFF0
3FC0
0F00
ENDCHAR
STARTCHAR 001A
ENCODING 26
SWIDTH 1000 0
DWIDTH 16 0
BBX 14 5 2 3
BITMAP
03C0
00F0
FFFC
00F0
03C0
ENDCHAR
STARTCHAR 001B
ENCODING 27
SWIDTH 1000 0
DWIDTH 16 0
BBX 14 5 2 3
BITMAP
0F00
3C00
FFFC
3C00
0F00
ENDCHAR
STARTCHAR 001C
ENCODING 28
SWIDTH 1000 0
DWIDTH 16 0
BBX 14 4 2 3
BITMAP
F000
F000
F000
FFFC
ENDCHAR
STARTCHAR 001D
ENCODING 29
SWIDTH 1000 0
DWIDTH 16 0
BBX 16 5 0 3
BITMAP
0C30
3C3C
FFFF
3C3C
0C30
ENDCHAR
STARTCHAR 001E
ENCODING 30
SWIDTH 1000 0
DWIDTH 16 0
BBX 14 7 1 2
BITMAP
0300
0780
0FC0
1FE0
3FF0
7FF8
FFFC
ENDCHAR
STARTCHAR 001F
ENCODING 31
SWIDTH 1000 0
DWIDTH 16 0
BBX 14 7 1 2
BITMAP
FFFC
7FF8
3FF0
1FE0
0FC0
0780
0300
ENDCHAR
STARTCHAR 0020
ENCODING 32
SWIDTH 1000 0
DWIDTH 16 0
BBX 0 0 0 0
BITMAP
ENDCHAR
STARTCHAR 0021
ENCODING 33
SWIDTH 1000 0
DWIDTH 16 0
BBX 8 11 4 0
BITMAP
3C
7E
FF
FF
FF
7E
3C
3C
00
3C
3C
ENDCHAR
STARTCHAR 0022
ENCODING 34
SWIDTH 1000 0
DWIDTH 16 0
BBX 12 4 2 8
BITMAP
F0F0
F0F0
70E0
30C0
ENDCHAR
STARTCHAR 0023
ENCODING 35
SWIDTH 1000 0
DWIDTH 16 0
BBX 14 10 1 0
BITMAP
3870
3870
FFFC
3870
3870
3870
3870
FFFC
3870
3870
ENDCHAR
STARTCHAR 0024
ENCODING 36
SWIDTH 1000 0
DWIDTH 16 0
BBX 12 15 2 -2
BITMAP
0F00
0F00
1F80
79E0
F0F0
F000
7800
1F80
01E0
00F0
F0F0
79E0
1F80
0F00
0F00
ENDCHAR
STARTCHAR 0025
ENCODING 37
SWIDTH 1000 0
DWIDTH 16 0
BBX 12 9 2 0
BITMAP
F0F0
F1E0
03C0
0780
0F00
1E00
3C00
78F0
F0F0
ENDCHAR
STARTCHAR 0026
ENCODING 38
SWIDTH 1000 0
DWIDTH 16 0
BBX 14 11 1 0
BITMAP
0F80
3DE0
78F0
3DE0
0F80
1F3C
7FF8
F1F0
F0F0
79F8
1F3C
ENDCHAR
STARTCHAR 0027
ENCODING 39
SWIDTH 1000 0
DWIDTH 16 0
BBX 5 4 3 8
BITMAP
78
78
78
F0
ENDCHAR
STARTCHAR 0028
ENCODING 40
SWIDTH 1000 0
DWIDTH 16 0
BBX 7 11 4 0
BITMAP
1E
3C
78
F0
F0
F0
F0
F0
78
3C
1E
ENDCHAR
STARTCHAR 0029
ENCODING 41
SWIDTH 1000 0
DWIDTH 16 0
BBX 7 11 7 0
BITMAP
F0
78
3C
1E
1E
1E
1E
1E
3C
78
F0
ENDCHAR
STARTCHAR 002A
ENCODING 42
SWIDTH 1000 0
DWIDTH 16 0
BBX 14 5 1 3
BITMAP
7878
1FE0
FFFC
1FE0
7878
ENDCHAR
STARTCHAR 002B
ENCODING 43
SWIDTH 1000 0
DWIDTH 16 0
BBX 14 7 1 2
BITMAP
0780
0780
0780
FFFC
0780
0780
0780
ENDCHAR
STARTCHAR 002C
ENCODING 44
SWIDTH 1000 0
DWIDTH 16 0
BBX 5 4 5 -1
BITMAP
78
78
70
E0
ENDCHAR
STARTCHAR 002D
ENCODING 45
SWIDTH 1000 0
DWIDTH 16 0
BBX 14 1 1 5
BITMAP
FFFC
ENDCHAR
STARTCHAR 002E
ENCODING 46
SWIDTH 1000 0
DWIDTH 16 0
BBX 4 2 6 0
BITMAP
F0
F0
ENDCHAR
STARTCHAR 002F
ENCODING 47
SWIDTH 1000 0
DWIDTH 16 0
BBX 12 9 2 1
BITMAP
00F0
01E0
03C0
0780
0F00
1E00
3C00
7800
F000
ENDCHAR
STARTCHAR 0030
ENCODING 48
SWIDTH 1000 0
DWIDTH 16 0
BBX 12 11 2 0
BITMAP
1F80
79E0
F0F0
F1F0
F3F0
F6F0
FCF0
F8F0
F0F0
79E0
1F80
ENDCHAR
STARTCHAR 0031
ENCODING 49
SWIDTH 1000 0
DWIDTH 16 0
BBX 12 11 2 0
BITMAP
0F00
3F00
FF00
0F00
0F00
0F00
0F00
0F00
0F00
0F00
FFF0
ENDCHAR
STARTCHAR 0032
ENCODING 50
SWIDTH 1000 0
DWIDTH 16 0
BBX 12 11 2 0
BITMAP
3F80
F1E0
00F0
00F0
01E0
03C0
0F00
3C00
7800
F0F0
FFF0
ENDCHAR
STARTCHAR 0033
ENCODING 51
SWIDTH 1000 0
DWIDTH 16 0
BBX 13 11 2 0
BITMAP
3FC0
F0F0
0078
0078
00F0
0FC0
00F0
0078
0078
F0F0
3FC0
ENDCHAR
STARTCHAR 0034
ENCODING 52
SWIDTH 1000 0
DWIDTH 16 0
BBX 12 11 2 0
BITMAP
07C0
0FC0
1FC0
3FC0
7BC0
F3C0
FFF0
03C0
03C0
03C0
0FF0
ENDCHAR
STARTCHAR 0035
ENCODING 53
SWIDTH 1000 0
DWIDTH 16 0
BBX 13 11 2 0
BITMAP
FFF8
F000
F000
F000
FFC0
00F0
0078
0078
0078
F0F0
3FC0
ENDCHAR
STARTCHAR 0036
ENCODING 54
SWIDTH 1000 0
DWIDTH 16 0
BBX 13 11 2 0
BITMAP
1FC0
7800
F000
F000
F000
FFC0
F0F0
F078
F078
78F0
1FC0
ENDCHAR
STARTCHAR 0037
ENCODING 55
SWIDTH 1000 0
DWIDTH 16 0
BBX 12 11 2 0
BITMAP
FFF0
F0F0
00F0
01E0
03C0
0780
0F00
0F00
0F00
0F00
0F00
ENDCHAR
STARTCHAR 0038
ENCODING 56
SWIDTH 1000 0
DWIDTH 16 0
BBX 13 11 2 0
BITMAP
1FC0
78F0
F078
F078
78F0
1FC0
78F0
F078
F078
78F0
1FC0
ENDCHAR
STARTCHAR 0039
ENCODING 57
SWIDTH 1000 0
DWIDTH 16 0
BBX 13 11 2 0
BITMAP
1FC0
78F0
F078
F078
7878
1FF8
0078
0078
0078
00F0
3FC0
ENDCHAR
STARTCHAR 003A
ENCODING 58
SWIDTH 1000 0
DWIDTH 16 0
BBX 4 8 6 1
BITMAP
F0
F0
00
00
00
00
F0
F0
ENDCHAR
STARTCHAR 003B
ENCODING 59
SWIDTH 1000 0
DWIDTH 16 0
BBX 5 9 5 0
BITMAP
78
78
00
00
00
00
78
78
F0
ENDCHAR
STARTCHAR 003C
ENCODING 60
SWIDTH 1000 0
DWIDTH 16 0
BBX 9 11 2 0
BITMAP
0780
0F00
1E00
3C00
7800
F000
7800
3C00
1E00
0F00
0780
ENDCHAR
STARTCHAR 003D
ENCODING 61
SWIDTH 1000 0
DWIDTH 16 0
BBX 12 4 2 3
BITMAP
FFF0
0000
0000
FFF0
ENDCHAR
STARTCHAR 003E
ENCODING 62
SWIDTH 1000 0
DWIDTH 16 0
BBX 9 11 5 0
BITMAP
F000
7800
3C00
1E00
0F00
0780
0F00
1E00
3C00
7800
F000
ENDCHAR
STARTCHAR 003F
ENCODING 63
SWIDTH 1000 0
DWIDTH 16 0
BBX 12 11 2 0
BITMAP
1F80
79E0
F0F0
01E0
03C0
0780
0F00
0F00
0000
0F00
0F00
ENDCHAR
STARTCHAR 0040
ENCODING 64
SWIDTH 1000 0
DWIDTH 16 0
BBX 14 11 1 0
BITMAP
1FF8
783C
F03C
F3FC
F71C
F71C
F71C
F3F8
F000
7800
1FF8
ENDCHAR
STARTCHAR 0041
ENCODING 65
SWIDTH 1000 0
DWIDTH 16 0
BBX 12 11 2 0
BITMAP
0F00
1F80
3FC0
79E0
F0F0
F0F0
FFF0
F0F0
F0F0
F0F0
F0F0
ENDCHAR
STARTCHAR 0042
ENCODING 66
SWIDTH 1000 0
DWIDTH 16 0
BBX 14 11 1 0
BITMAP
FFE0
3C78
3C3C
3C3C
3C78
3FE0
3C78
3C3C
3C3C
3C78
FFE0
ENDCHAR
STARTCHAR 0043
ENCODING 67
SWIDTH 1000 0
DWIDTH 16 0
BBX 13 11 2 0
BITMAP
1FC0
78F0
F078
F000
F000
F000
F000
F000
F078
78F0
1FC0
ENDCHAR
STARTCHAR 0044
ENCODING 68
SWIDTH 1000 0
DWIDTH 16 0
BBX 14 11 1 0
BITMAP
FFE0
3C78
3C3C
3C3C
3C3C
3C3C
3C3C
3C3C
3C3C
3C78
FFE0
ENDCHAR
STARTCHAR 0045
ENCODING 69
SWIDTH 1000 0
DWIDTH 16 0
BBX 14 11 1 0
BITMAP
FFFC
3C1C
3C0C
3C00
3CC0
3FC0
3CC0
3C00
3C0C
3C1C
FFFC
ENDCHAR
STARTCHAR 0046
ENCODING 70
SWIDTH 1000 0
DWIDTH 16 0
BBX 14 11 1 0
BITMAP
FFFC
3C1C
3C0C
3C00
3CC0
3FC0
3CC0
3C00
3C00
3C00
FF00
ENDCHAR
STARTCHAR 0047
ENCODING 71
SWIDTH 1000 0
DWIDTH 16 0
BBX 13 11 2 0
BITMAP
1FC0
78F0
F078
F000
F000
F000
F1F8
F078
F078
78F8
1FD8
ENDCHAR
STARTCHAR 0048
ENCODING 72
SWIDTH 1000 0
DWIDTH 16 0
BBX 13 11 2 0
BITMAP
F078
F078
F078
F078
F078
FFF8
F078
F078
F078
F078
F078
ENDCHAR
STARTCHAR 0049
ENCODING 73
SWIDTH 1000 0
DWIDTH 16 0
BBX 8 11 4 0
BITMAP
FF
3C
3C
3C
3C
3C
3C
3C
3C
3C
FF
ENDCHAR
STARTCHAR 004A
ENCODING 74
SWIDTH 1000 0
DWIDTH 16 0
BBX 13 11 2 0
BITMAP
0FF8
01E0
01E0
01E0
01E0
01E0
01E0
01E0
F1E0
7FC0
1F00
ENDCHAR
STARTCHAR 004B
ENCODING 75
SWIDTH 1000 0
DWIDTH 16 0
BBX 14 11 1 0
BITMAP
FC78
3CF0
3DE0
3FC0
3F80
3F80
3FC0
3DE0
3CF0
3C78
FC3C
ENDCHAR
STARTCHAR 004C
ENCODING 76
SWIDTH 1000 0
DWIDTH 16 0
BBX 14 11 1 0
BITMAP
FF00
3C00
3C00
3C00
3C00
3C00
3C00
3C00
3C0C
3C1C
FFFC
ENDCHAR
STARTCHAR 004D
ENCODING 77
SWIDTH 1000 0
DWIDTH 16 0
BBX 14 11 1 0
BITMAP
F03C
F87C
FCFC
FFFC
F7BC
F33C
F03C
F03C
F03C
F03C
F03C
ENDCHAR
STARTCHAR 004E
ENCODING 78
SWIDTH 1000 0
DWIDTH 16 0
BBX 13 11 2 0
BITMAP
F078
F078
F878
FC78
FE78
F778
F3F8
F1F8
F0F8
F078
F078
ENDCHAR
STARTCHAR 004F
ENCODING 79
SWIDTH 1000 0
DWIDTH 16 0
BBX 13 11 2 0
BITMAP
1FC0
78F0
F078
F078
F078
F078
F078
F078
F078
78F0
1FC0
ENDCHAR
STARTCHAR 0050
ENCODING 80
SWIDTH 1000 0
DWIDTH 16 0
BBX 14 11 1 0
BITMAP
FFE0
3C78
3C3C
3C3C
3C78
3FE0
3C00
3C00
3C00
3C00
FF00
ENDCHAR
STARTCHAR 0051
ENCODING 81
SWIDTH 1000 0
DWIDTH 16 0
BBX 13 12 2 -1
BITMAP
1FC0
78F0
F078
F078
F078
F078
F078
F778
F3F8
79F0
1FE0
0070
ENDCHAR
STARTCHAR 0052
ENCODING 82
SWIDTH 1000 0
DWIDTH 16 0
BBX 14 11 1 0
BITMAP
FFE0
3C78
3C3C
3C3C
3C78
3FE0
3FC0
3DE0
3CF0
3C78
FC3C
ENDCHAR
STARTCHAR 0053
ENCODING 83
SWIDTH 1000 0
DWIDTH 16 0
BBX 14 11 1 0
BITMAP
1FE0
7878
F03C
7800
1E00
0780
01E0
0078
F03C
7878
1FE0
ENDCHAR
STARTCHAR 0054
ENCODING 84
SWIDTH 1000 0
DWIDTH 16 0
BBX 14 11 1 0
BITMAP
FFFC
E79C
C78C
0780
0780
0780
0780
0780
0780
0780
1FE0
ENDCHAR
STARTCHAR 0055
ENCODING 85
SWIDTH 1000 0
DWIDTH 16 0
BBX 13 11 2 0
BITMAP
F078
F078
F078
F078
F078
F078
F078
F078
F078
78F0
1FC0
ENDCHAR
STARTCHAR 0056
ENCODING 86
SWIDTH 1000 0
DWIDTH 16 0
BBX 12 11 2 0
BITMAP
F0F0
F0F0
F0F0
F0F0
F0F0
F0F0
F0F0
79E0
3FC0
1F80
0F00
ENDCHAR
STARTCHAR 0057
ENCODING 87
SWIDTH 1000 0
DWIDTH 16 0
BBX 14 11 1 0
BITMAP
F03C
F03C
F03C
F03C
F03C
F03C
F33C
F7BC
FFFC
7CF8
3870
ENDCHAR
STARTCHAR 0058
ENCODING 88
SWIDTH 1000 0
DWIDTH 16 0
BBX 12 11 2 0
BITMAP
F0F0
F0F0
79E0
3FC0
1F80
0F00
1F80
3FC0
79E0
F0F0
F0F0
ENDCHAR
STARTCHAR 0059
ENCODING 89
SWIDTH 1000 0
DWIDTH 16 0
BBX 12 11 2 0
BITMAP
F0F0
F0F0
F0F0
F0F0
79E0
3FC0
1F80
0F00
0F00
0F00
3FC0
ENDCHAR
STARTCHAR 005A
ENCODING 90
SWIDTH 1000 0
DWIDTH 16 0
BBX 12 11 2 0
BITMAP
FFF0
E0F0
C1E0
03C0
0780
0F00
1E00
3C00
7830
F070
FFF0
ENDCHAR
STARTCHAR 005B
ENCODING 91
SWIDTH 1000 0
DWIDTH 16 0
BBX 8 11 4 0
BITMAP
FF
F0
F0
F0
F0
F0
F0
F0
F0
F0
FF
ENDCHAR
STARTCHAR 005C
ENCODING 92
SWIDTH 1000 0
DWIDTH 16 0
BBX 12 9 2 1
BITMAP
F000
7800
3C00
1E00
0F00
0780
03C0
01E0
00F0
ENDCHAR
STARTCHAR 005D
ENCODING 93
SWIDTH 1000 0
DWIDTH 16 0
BBX 8 11 4 0
BITMAP
FF
0F
0F
0F
0F
0F
0F
0F
0F
0F
FF
ENDCHAR
STARTCHAR 005E
ENCODING 94
SWIDTH 1000 0
DWIDTH 16 0
BBX 12 5 2 8
BITMAP
0F00
1F80
3FC0
79E0
F0F0
ENDCHAR
STARTCHAR 005F
ENCODING 95
SWIDTH 1000 0
DWIDTH 16 0
BBX 15 1 1 -2
BITMAP
FFFE
ENDCHAR
STARTCHAR 0060
ENCODING 96
SWIDTH 1000 0
DWIDTH 16 0
BBX 5 3 6 10
BITMAP
F0
F0
78
ENDCHAR
STARTCHAR 0061
ENCODING 97
SWIDTH 1000 0
DWIDTH 16 0
BBX 13 7 2 0
BITMAP
3F80
01E0
3FE0
F1E0
F1E0
F1E0
3E78
ENDCHAR
STARTCHAR 0062
ENCODING 98
SWIDTH 1000 0
DWIDTH 16 0
BBX 13 11 2 0
BITMAP
FC00
3C00
3C00
3C00
3FC0
3CF0
3C78
3C78
3C78
3C78
F3E0
ENDCHAR
STARTCHAR 0063
ENCODING 99
SWIDTH 1000 0
DWIDTH 16 0
BBX 13 7 2 0
BITMAP
3FE0
F078
F000
F000
F000
F078
3FE0
ENDCHAR
STARTCHAR 0064
ENCODING 100
SWIDTH 1000 0
DWIDTH 16 0
BBX 13 11 2 0
BITMAP
07E0
01E0
01E0
01E0
1FE0
79E0
F1E0
F1E0
F1E0
F1E0
3E78
ENDCHAR
STARTCHAR 0065
ENCODING 101
SWIDTH 1000 0
DWIDTH 16 0
BBX 13 7 2 0
BITMAP
3FE0
F078
F078
FFF8
F000
F078
3FE0
ENDCHAR
STARTCHAR 0066
ENCODING 102
SWIDTH 1000 0
DWIDTH 16 0
BBX 12 11 2 0
BITMAP
0FC0
3CF0
3C30
3C00
3C00
FFC0
3C00
3C00
3C00
3C00
FF00
ENDCHAR
STARTCHAR 0067
ENCODING 103
SWIDTH 1000 0
DWIDTH 16 0
BBX 13 9 2 -2
BITMAP
3E78
F1E0
F1E0
F1E0
F1E0
3FE0
01E0
F1E0
3F80
ENDCHAR
STARTCHAR 0068
ENCODING 104
SWIDTH 1000 0
DWIDTH 16 0
BBX 13 11 2 0
BITMAP
FC00
3C00
3C00
3C00
3DE0
3E78
3C78
3C78
3C78
3C78
FC78
ENDCHAR
STARTCHAR 0069
ENCODING 105
SWIDTH 1000 0
DWIDTH 16 0
BBX 8 10 6 0
BITMAP
3C
3C
00
FC
3C
3C
3C
3C
3C
FF
ENDCHAR
STARTCHAR 006A
ENCODING 106
SWIDTH 1000 0
DWIDTH 16 0
BBX 12 12 2 -2
BITMAP
00F0
00F0
0000
03F0
00F0
00F0
00F0
00F0
00F0
F0F0
79E0
1F80
ENDCHAR
STARTCHAR 006B
ENCODING 107
SWIDTH 1000 0
DWIDTH 16 0
BBX 13 11 2 0
BITMAP
FC00
3C00
3C00
3C00
3C78
3CF0
3DE0
3FC0
3DE0
3CF0
FC78
ENDCHAR
STARTCHAR 006C
ENCODING 108
SWIDTH 1000 0
DWIDTH 16 0
BBX 8 11 6 0
BITMAP
FC
3C
3C
3C
3C
3C
3C
3C
3C
3C
FF
ENDCHAR
STARTCHAR 006D
ENCODING 109
SWIDTH 1000 0
DWIDTH 16 0
BBX 14 7 1 0
BITMAP
FCF8
FFFC
F7BC
F7BC
F7BC
F7BC
F7BC
ENDCHAR
STARTCHAR 006E
ENCODING 110
SWIDTH 1000 0
DWIDTH 16 0
BBX 13 7 2 0
BITMAP
F3E0
3CF0
3C78
3C78
3C78
3C78
3C78
ENDCHAR
STARTCHAR 006F
ENCODING 111
SWIDTH 1000 0
DWIDTH 16 0
BBX 13 7 2 0
BITMAP
1FC0
78F0
F078
F078
F078
78F0
1FC0
ENDCHAR
STARTCHAR 0070
ENCODING 112
SWIDTH 1000 0
DWIDTH 16 0
BBX 13 9 2 -2
BITMAP
F3C0
3CF0
3C78
3C78
3CF0
3FC0
3C00
3C00
FF00
ENDCHAR
STARTCHAR 0071
ENCODING 113
SWIDTH 1000 0
DWIDTH 16 0
BBX 13 9 2 -2
BITMAP
1E78
79E0
F1E0
F1E0
79E0
1FE0
01E0
01E0
03F8
ENDCHAR
STARTCHAR 0072
ENCODING 114
SWIDTH 1000 0
DWIDTH 16 0
BBX 13 7 2 0
BITMAP
F3E0
3E78
3C00
3C00
3C00
3C00
FF00
ENDCHAR
STARTCHAR 0073
ENCODING 115
SWIDTH 1000 0
DWIDTH 16 0
BBX 13 7 2 0
BITMAP
3FE0
F078
F000
3FE0
0078
F078
3FE0
ENDCHAR
STARTCHAR 0074
ENCODING 116
SWIDTH 1000 0
DWIDTH 16 0
BBX 14 11 1 0
BITMAP
0300
0700
0F00
0F00
FFF0
0F00
0F00
0F00
0F00
0F3C
03F0
ENDCHAR
STARTCHAR 0075
ENCODING 117
SWIDTH 1000 0
DWIDTH 16 0
BBX 13 7 2 0
BITMAP
F1E0
F1E0
F1E0
F1E0
F1E0
F1E0
3E78
ENDCHAR
STARTCHAR 0076
ENCODING 118
SWIDTH 1000 0
DWIDTH 16 0
BBX 14 7 1 0
BITMAP
F03C
F03C
F03C
F03C
3CF0
0FC0
0300
ENDCHAR
STARTCHAR 0077
ENCODING 119
SWIDTH 1000 0
DWIDTH 16 0
BBX 14 7 1 0
BITMAP
F03C
F03C
F03C
F33C
F7BC
7FF8
3CF0
ENDCHAR
STARTCHAR 0078
ENCODING 120
SWIDTH 1000 0
DWIDTH 16 0
BBX 12 7 2 0
BITMAP
F0F0
39C0
1F80
0F00
1F80
39C0
F0F0
ENDCHAR
STARTCHAR 0079
ENCODING 121
SWIDTH 1000 0
DWIDTH 16 0
BBX 13 9 2 -2
BITMAP
F078
F078
F078
F078
7878
1FF8
0078
00F0
3FC0
ENDCHAR
STARTCHAR 007A
ENCODING 122
SWIDTH 1000 0
DWIDTH 16 0
BBX 12 7 2 0
BITMAP
FFF0
F0F0
03C0
0F00
3C00
F0F0
FFF0
ENDCHAR
STARTCHAR 007B
ENCODING 123
SWIDTH 1000 0
DWIDTH 16 0
BBX 12 11 2 0
BITMAP
03F0
0780
0F00
0F00
0F00
FE00
0F00
0F00
0F00
0780
03F0
ENDCHAR
STARTCHAR 007C
ENCODING 124
SWIDTH 1000 0
DWIDTH 16 0
BBX 4 11 6 0
BITMAP
F0
F0
F0
F0
F0
00
F0
F0
F0
F0
F0
ENDCHAR
STARTCHAR 007D
ENCODING 125
SWIDTH 1000 0
DWIDTH 16 0
BBX 12 11 2 0
BITMAP
FC00
1E00
0F00
0F00
0F00
07F0
0F00
0F00
0F00
1E00
FC00
ENDCHAR
STARTCHAR 007E
ENCODING 126
SWIDTH 1000 0
DWIDTH 16 0
BBX 13 2 2 9
BITMAP
3E78
F3E0
ENDCHAR
STARTCHAR 007F
ENCODING 127
SWIDTH 1000 0
DWIDTH 16 0
BBX 14 6 2 3
BITMAP
0300
0FC0
3CF0
F03C
F03C
FFFC
ENDCHAR
STARTCHAR 00A0
ENCODING 160
SWIDTH 1000 0
DWIDTH 16 0
BBX 0 0 0 0
BITMAP
ENDCHAR
STARTCHAR 00A1
ENCODING 161
SWIDTH 1000 0
DWIDTH 16 0
BBX 8 11 4 0
BITMAP
3C
3C
00
3C
3C
7E
FF
FF
FF
7E
3C
ENDCHAR
STARTCHAR 00A2
ENCODING 162
SWIDTH 1000 0
DWIDTH 16 0
BBX 14 11 1 0
BITMAP
0780
0780
3FF0
F03C
F000
F000
F000
F03C
3FF0
0780
0780
ENDCHAR
STARTCHAR 00A3
ENCODING 163
SWIDTH 1000 0
DWIDTH 16 0
BBX 14 11 2 0
BITMAP
0FC0
3CF0
3C30
3C00
FF00
3C00
3C00
3C00
3C00
FC3C
FFF0
ENDCHAR
STARTCHAR 00A5
ENCODING 165
SWIDTH 1000 0
DWIDTH 16 0
BBX 14 11 1 0
BITMAP
F03C
3CF0
0FC0
0780
0780
FFFC
0780
FFFC
0780
0780
0780
ENDCHAR
STARTCHAR 00A7
ENCODING 167
SWIDTH 1000 0
DWIDTH 16 0
BBX 14 12 2 0
BITMAP
3FF0
F03C
3C00
0FC0
3CF0
F03C
F03C
3CF0
0FC0
00F0
F03C
3FF0
ENDCHAR
STARTCHAR 00AA
ENCODING 170
SWIDTH 1000 0
DWIDTH 16 0
BBX 12 6 2 5
BITMAP
3FC0
F3C0
F3C0
3FF0
0000
FFF0
ENDCHAR
STARTCHAR 00AB
ENCODING 171
SWIDTH 1000 0
DWIDTH 16 0
BBX 14 5 2 3
BITMAP
0F3C
3CF0
F3C0
3CF0
0F3C
ENDCHAR
STARTCHAR 00AC
ENCODING 172
SWIDTH 1000 0
DWIDTH 16 0
BBX 14 4 2 2
BITMAP
FFFC
003C
003C
003C
ENDCHAR
STARTCHAR 00B0
ENCODING 176
SWIDTH 1000 0
DWIDTH 16 0
BBX 10 4 2 8
BITMAP
3F00
F3C0
F3C0
3F00
ENDCHAR
STARTCHAR 00B1
ENCODING 177
SWIDTH 1000 0
DWIDTH 16 0
BBX 14 9 1 1
BITMAP
0780
0780
0780
FFFC
0780
0780
0780
0000
FFFC
ENDCHAR
STARTCHAR 00B2
ENCODING 178
SWIDTH 1000 0
DWIDTH 16 0
BBX 10 7 0 5
BITMAP
3F00
F3C0
03C0
0F00
3C00
F0C0
FFC0
ENDCHAR
STARTCHAR 00B5
ENCODING 181
SWIDTH 1000 0
DWIDTH 16 0
BBX 13 9 2 -1
BITMAP
3C78
3C78
3C78
3C78
3C78
3FE0
3C00
3C00
F000
ENDCHAR
STARTCHAR 00B6
ENCODING 182
SWIDTH 1000 0
DWIDTH 16 0
BBX 16 11 0 0
BITMAP
3FFF
F3CF
F3CF
F3CF
F3CF
3FCF
03CF
03CF
03CF
03CF
03CF
ENDCHAR
STARTCHAR 00B7
ENCODING 183
SWIDTH 1000 0
DWIDTH 16 0
BBX 4 1 6 4
BITMAP
F0
ENDCHAR
STARTCHAR 00BA
ENCODING 186
SWIDTH 1000 0
DWIDTH 16 0
BBX 10 6 2 5
BITMAP
3F00
F3C0
F3C0
3F00
0000
FFC0
ENDCHAR
STARTCHAR 00BB
ENCODING 187
SWIDTH 1000 0
DWIDTH 16 0
BBX 14 5 2 3
BITMAP
F3C0
3CF0
0F3C
3CF0
F3C0
ENDCHAR
STARTCHAR 00BC
ENCODING 188
SWIDTH 1000 0
DWIDTH 16 0
BBX 16 12 0 -1
BITMAP
3C00
FC00
3C0F
3C3C
3CF0
03C0
0F0F
3C3F
F0E7
03FF
000F
000F
ENDCHAR
STARTCHAR 00BD
ENCODING 189
SWIDTH 1000 0
DWIDTH 16 0
BBX 16 12 0 -1
BITMAP
3C00
FC00
3C0F
3C3C
3CF0
03C0
0F00
3CFC
F00F
003C
00F0
03FF
ENDCHAR
STARTCHAR 00BF
ENCODING 191
SWIDTH 1000 0
DWIDTH 16 0
BBX 13 11 2 0
BITMAP
0F00
0F00
0000
0F00
0F00
0F00
1E00
7800
F078
78F0
1FC0
ENDCHAR
STARTCHAR 00C4
ENCODING 196
SWIDTH 1000 0
DWIDTH 16 0
BBX 14 12 2 0
BITMAP
F03C
F03C
0300
0FC0
3CF0
F03C
F03C
F03C
FFFC
F03C
F03C
F03C
ENDCHAR
STARTCHAR 00C5
ENCODING 197
SWIDTH 1000 0
DWIDTH 16 0
BBX 14 13 2 0
BITMAP
0FC0
3CF0
0FC0
0000
0FC0
3CF0
F03C
F03C
F03C
FFFC
F03C
F03C
F03C
ENDCHAR
STARTCHAR 00C6
ENCODING 198
SWIDTH 1000 0
DWIDTH 16 0
BBX 14 11 2 0
BITMAP
0FFC
3CF0
F0F0
F0F0
F0F0
FFFC
F0F0
F0F0
F0F0
F0F0
F0FC
ENDCHAR
STARTCHAR 00C7
ENCODING 199
SWIDTH 1000 0
DWIDTH 16 0
BBX 13 13 2 -2
BITMAP
1FE0
7878
F018
F000
F000
F000
F000
F018
7878
1FE0
01E0
0078
3FE0
ENDCHAR
STARTCHAR 00C9
ENCODING 201
SWIDTH 1000 0
DWIDTH 16 0
BBX 14 13 2 0
BITMAP
03C0
0F00
3C00
0000
FFFC
3C3C
3C00
3C00
3FF0
3C00
3C00
3C3C
FFFC
ENDCHAR
STARTCHAR 00D1
ENCODING 209
SWIDTH 1000 0
DWIDTH 16 0
BBX 14 12 1 0
BITMAP
3F3C
F3F0
0000
F03C
F03C
FC3C
FF3C
FFFC
F3FC
F0FC
F03C
F03C
ENDCHAR
STARTCHAR 00D6
ENCODING 214
SWIDTH 1000 0
DWIDTH 16 0
BBX 13 12 2 0
BITMAP
F078
F078
0000
1FC0
78F0
F078
F078
F078
F078
F078
78F0
1FC0
ENDCHAR
STARTCHAR 00DC
ENCODING 220
SWIDTH 1000 0
DWIDTH 16 0
BBX 13 12 2 0
BITMAP
F078
F078
0000
F078
F078
F078
F078
F078
F078
F078
78F0
1FC0
ENDCHAR
STARTCHAR 00DF
ENCODING 223
SWIDTH 1000 0
DWIDTH 16 0
BBX 13 10 2 -1
BITMAP
3FE0
F078
F078
FFE0
F078
F078
FFE0
F000
F000
3000
ENDCHAR
STARTCHAR 00E0
ENCODING 224
SWIDTH 1000 0
DWIDTH 16 0
BBX 14 11 2 0
BITMAP
3C00
0F00
03C0
0000
3FC0
00F0
3FF0
F0F0
F0F0
F0F0
3F3C
ENDCHAR
STARTCHAR 00E1
ENCODING 225
SWIDTH 1000 0
DWIDTH 16 0
BBX 14 11 2 0
BITMAP
03C0
0F00
3C00
0000
3FC0
00F0
3FF0
F0F0
F0F0
F0F0
3F3C
ENDCHAR
STARTCHAR 00E2
ENCODING 226
SWIDTH 1000 0
DWIDTH 16 0
BBX 14 11 2 0
BITMAP
0300
0FC0
3CF0
0000
3FC0
00F0
3FF0
F0F0
F0F0
F0F0
3F3C
ENDCHAR
STARTCHAR 00E4
ENCODING 228
SWIDTH 1000 0
DWIDTH 16 0
BBX 14 10 2 0
BITMAP
F0F0
F0F0
0000
3FC0
00F0
3FF0
F0F0
F0F0
F0F0
3F3C
ENDCHAR
STARTCHAR 00E5
ENCODING 229
SWIDTH 1000 0
DWIDTH 16 0
BBX 14 11 2 0
BITMAP
0FC0
3CF0
0FC0
0000
3FC0
00F0
3FF0
F0F0
F0F0
F0F0
3F3C
ENDCHAR
STARTCHAR 00E6
ENCODING 230
SWIDTH 1000 0
DWIDTH 16 0
BBX 16 7 0 0
BITMAP
3FFE
03CF
03CF
7FFE
F3C0
F3C0
7FFF
ENDCHAR
STARTCHAR 00E7
ENCODING 231
SWIDTH 1000 0
DWIDTH 16 0
BBX 12 9 2 -1
BITMAP
3FC0
F0F0
F000
F000
F0F0
3FC0
03C0
00F0
3FC0
ENDCHAR
STARTCHAR 00E8
ENCODING 232
SWIDTH 1000 0
DWIDTH 16 0
BBX 14 11 2 0
BITMAP
3C00
0F00
03C0
0000
3FF0
F03C
F03C
FFFC
F000
F03C
3FF0
ENDCHAR
STARTCHAR 00E9
ENCODING 233
SWIDTH 1000 0
DWIDTH 16 0
BBX 14 11 2 0
BITMAP
00F0
03C0
0F00
0000
3FF0
F03C
F03C
FFFC
F000
F03C
3FF0
ENDCHAR
STARTCHAR 00EA
ENCODING 234
SWIDTH 1000 0
DWIDTH 16 0
BBX 14 11 2 0
BITMAP
0300
0FC0
3CF0
0000
3FF0
F03C
F03C
FFFC
F000
F03C
3FF0
ENDCHAR
STARTCHAR 00EB
ENCODING 235
SWIDTH 1000 0
DWIDTH 16 0
BBX 14 10 2 0
BITMAP
F0F0
F0F0
0000
3FF0
F03C
F03C
FFFC
F000
F03C
3FF0
ENDCHAR
STARTCHAR 00EC
ENCODING 236
SWIDTH 1000 0
DWIDTH 16 0
BBX 10 11 2 0
BITMAP
F000
3C00
0F00
0000
3F00
0F00
0F00
0F00
0F00
0F00
3FC0
ENDCHAR
STARTCHAR 00ED
ENCODING 237
SWIDTH 1000 0
DWIDTH 16 0
BBX 8 11 4 0
BITMAP
0F
3C
F0
00
FC
3C
3C
3C
3C
3C
FF
ENDCHAR
STARTCHAR 00EE
ENCODING 238
SWIDTH 1000 0
DWIDTH 16 0
BBX 12 11 2 0
BITMAP
0F00
3FC0
F0F0
0000
3F00
0F00
0F00
0F00
0F00
0F00
3FC0
ENDCHAR
STARTCHAR 00EF
ENCODING 239
SWIDTH 1000 0
DWIDTH 16 0
BBX 12 10 2 0
BITMAP
F0F0
F0F0
0000
3F00
0F00
0F00
0F00
0F00
0F00
3FC0
ENDCHAR
STARTCHAR 00F1
ENCODING 241
SWIDTH 1000 0
DWIDTH 16 0
BBX 14 10 1 0
BITMAP
3F3C
F3F0
0000
F3F0
3C78
3C3C
3C3C
3C3C
3C3C
3C3C
ENDCHAR
STARTCHAR 00F2
ENCODING 242
SWIDTH 1000 0
DWIDTH 16 0
BBX 13 11 2 0
BITMAP
3C00
0F00
03C0
0000
1FC0
78F0
F078
F078
F078
78F0
1FC0
ENDCHAR
STARTCHAR 00F3
ENCODING 243
SWIDTH 1000 0
DWIDTH 16 0
BBX 13 11 2 0
BITMAP
03C0
0F00
3C00
0000
1FC0
78F0
F078
F078
F078
78F0
1FC0
ENDCHAR
STARTCHAR 00F4
ENCODING 244
SWIDTH 1000 0
DWIDTH 16 0
BBX 13 11 2 0
BITMAP
0600
1F80
79E0
0000
1FC0
78F0
F078
F078
F078
78F0
1FC0
ENDCHAR
STARTCHAR 00F6
ENCODING 246
SWIDTH 1000 0
DWIDTH 16 0
BBX 13 10 2 0
BITMAP
F078
F078
0000
1FC0
78F0
F078
F078
F078
78F0
1FC0
ENDCHAR
STARTCHAR 00F7
ENCODING 247
SWIDTH 1000 0
DWIDTH 16 0
BBX 14 9 1 1
BITMAP
0780
0780
0000
0000
FFFC
0000
0000
0780
0780
ENDCHAR
STARTCHAR 00F9
ENCODING 249
SWIDTH 1000 0
DWIDTH 16 0
BBX 14 11 2 0
BITMAP
3C00
0F00
03C0
0000
F0F0
F0F0
F0F0
F0F0
F0F0
F0F0
3F3C
ENDCHAR
STARTCHAR 00FA
ENCODING 250
SWIDTH 1000 0
DWIDTH 16 0
BBX 14 11 2 0
BITMAP
03C0
0F00
3C00
0000
F0F0
F0F0
F0F0
F0F0
F0F0
F0F0
3F3C
ENDCHAR
STARTCHAR 00FB
ENCODING 251
SWIDTH 1000 0
DWIDTH 16 0
BBX 14 11 2 0
BITMAP
0F00
3FC0
F0F0
0000
F0F0
F0F0
F0F0
F0F0
F0F0
F0F0
3F3C
ENDCHAR
STARTCHAR 00FC
ENCODING 252
SWIDTH 1000 0
DWIDTH 16 0
BBX 14 10 2 0
BITMAP
F0F0
F0F0
0000
F0F0
F0F0
F0F0
F0F0
F0F0
F0F0
3F3C
ENDCHAR
STARTCHAR 00FF
ENCODING 255
SWIDTH 1000 0
DWIDTH 16 0
BBX 13 12 2 -2
BITMAP
F078
F078
0000
F078
F078
F078
F078
7878
1FF8
0078
00F0
3FC0
ENDCHAR
STARTCHAR 0192
ENCODING 402
SWIDTH 1000 0
DWIDTH 16 0
BBX 16 12 0 -1
BITMAP
00FC
03CF
03C0
03C0
03C0
3FFC
03C0
03C0
03C0
03C0
F3C0
3F00
ENDCHAR
STARTCHAR 0393
ENCODING 915
SWIDTH 1000 0
DWIDTH 16 0
BBX 13 11 2 0
BITMAP
FFF8
F078
F078
F000
F000
F000
F000
F000
F000
F000
F000
ENDCHAR
STARTCHAR 0398
ENCODING 920
SWIDTH 1000 0
DWIDTH 16 0
BBX 13 11 2 0
BITMAP
1FC0
78F0
F078
F078
F078
FFF8
F078
F078
F078
78F0
1FC0
ENDCHAR
STARTCHAR 03A3
ENCODING 931
SWIDTH 1000 0
DWIDTH 16 0
BBX 13 11 2 0
BITMAP
FFF8
F078
F000
3C00
0F00
03C0
0F00
3C00
F000
F078
FFF8
ENDCHAR
STARTCHAR 03A6
ENCODING 934
SWIDTH 1000 0
DWIDTH 16 0
BBX 12 11 2 0
BITMAP
FFF0
0F00
3FC0
F0F0
F0F0
F0F0
F0F0
F0F0
3FC0
0F00
FFF0
ENDCHAR
STARTCHAR 03A9
ENCODING 937
SWIDTH 1000 0
DWIDTH 16 0
BBX 14 11 1 0
BITMAP
1FE0
7878
F03C
F03C
F03C
F03C
7878
3CF0
3CF0
3CF0
FCFC
ENDCHAR
STARTCHAR 03B1
ENCODING 945
SWIDTH 1000 0
DWIDTH 16 0
BBX 13 7 2 0
BITMAP
1E78
7FF0
F3E0
F3C0
F3E0
7FF0
1E78
ENDCHAR
STARTCHAR 03B4
ENCODING 948
SWIDTH 1000 0
DWIDTH 16 0
BBX 12 11 2 0
BITMAP
0FF0
3C00
3C00
0F00
03C0
1FF0
78F0
F0F0
F0F0
79E0
1F80
ENDCHAR
STARTCHAR 03B5
ENCODING 949
SWIDTH 1000 0
DWIDTH 16 0
BBX 10 11 2 0
BITMAP
0FC0
3C00
F000
F000
F000
FFC0
F000
F000
F000
3C00
0FC0
ENDCHAR
STARTCHAR 03C0
ENCODING 960
SWIDTH 1000 0
DWIDTH 16 0
BBX 14 8 1 0
BITMAP
FFFC
3CF0
3CF0
3CF0
3CF0
3CF0
3CF0
3CF0
ENDCHAR
STARTCHAR 03C3
ENCODING 963
SWIDTH 1000 0
DWIDTH 16 0
BBX 13 7 2 0
BITMAP
1FF8
79E0
F1E0
F1E0
F1E0
7BC0
1F00
ENDCHAR
STARTCHAR 03C4
ENCODING 964
SWIDTH 1000 0
DWIDTH 16 0
BBX 14 8 2 0
BITMAP
3F3C
F3F0
03C0
03C0
03C0
03C0
03C0
03C0
ENDCHAR
STARTCHAR 03C6
ENCODING 966
SWIDTH 1000 0
DWIDTH 16 0
BBX 14 10 1 0
BITMAP
0038
0070
1FE0
79F8
F3BC
F73C
7E78
1FE0
3800
7000
ENDCHAR
STARTCHAR 2022
ENCODING 8226
SWIDTH 1000 0
DWIDTH 16 0
BBX 8 4 4 3
BITMAP
3C
FF
FF
3C
ENDCHAR
STARTCHAR 203C
ENCODING 8252
SWIDTH 1000 0
DWIDTH 16 0
BBX 12 11 4 0
BITMAP
F0F0
F0F0
F0F0
F0F0
F0F0
F0F0
F0F0
F0F0
0000
F0F0
F0F0
ENDCHAR
STARTCHAR 207F
ENCODING 8319
SWIDTH 1000 0
DWIDTH 16 0
BBX 12 7 0 5
BITMAP
F3C0
3CF0
3CF0
3CF0
3CF0
3CF0
3CF0
ENDCHAR
STARTCHAR 20A7
ENCODING 8359
SWIDTH 1000 0
DWIDTH 16 0
BBX 16 11 0 0
BITMAP
FFF0
3C3C
3C3C
3FF0
3C0C
3C3C
3CFF
3C3C
3C3C
3C3C
FF0F
ENDCHAR
STARTCHAR 2190
ENCODING 8592
SWIDTH 1000 0
DWIDTH 16 0
BBX 14 5 2 3
BITMAP
0F00
3C00
FFFC
3C00
0F00
ENDCHAR
STARTCHAR 2191
ENCODING 8593
SWIDTH 1000 0
DWIDTH 16 0
BBX 12 11 2 0
BITMAP
0F00
3FC0
FFF0
0F00
0F00
0F00
0F00
0F00
0F00
0F00
0F00
ENDCHAR
STARTCHAR 2192
ENCODING 8594
SWIDTH 1000 0
DWIDTH 16 0
BBX 14 5 2 3
BITMAP
03C0
00F0
FFFC
00F0
03C0
ENDCHAR
STARTCHAR 2193
ENCODING 8595
SWIDTH 1000 0
DWIDTH 16 0
BBX 12 11 2 0
BITMAP
0F00
0F00
0F00
0F00
0F00
0F00
0F00
0F00
FFF0
3FC0
0F00
ENDCHAR
STARTCHAR 2194
ENCODING 8596
SWIDTH 1000 0
DWIDTH 16 0
BBX 16 5 0 3
BITMAP
0C30
3C3C
FFFF
3C3C
0C30
ENDCHAR
STARTCHAR 2195
ENCODING 8597
SWIDTH 1000 0
DWIDTH 16 0
BBX 12 11 2 0
BITMAP
0F00
3FC0
FFF0
0F00
0F00
0F00
0F00
0F00
FFF0
3FC0
0F00
ENDCHAR
STARTCHAR 21A8
ENCODING 8616
SWIDTH 1000 0
DWIDTH 16 0
BBX 12 12 2 -1
BITMAP
0F00
3FC0
FFF0
0F00
0F00
0F00
0F00
0F00
FFF0
3FC0
0F00
FFF0
ENDCHAR
STARTCHAR 2219
ENCODING 8729
SWIDTH 1000 0
DWIDTH 16 0
BBX 4 2 6 4
BITMAP
F0
F0
ENDCHAR
STARTCHAR 221A
ENCODING 8730
SWIDTH 1000 0
DWIDTH 16 0
BBX 16 12 0 0
BITMAP
00FF
00F0
00F0
00F0
00F0
00F0
00F0
FCF0
3CF0
0FF0
03F0
00F0
ENDCHAR
STARTCHAR 221E
ENCODING 8734
SWIDTH 1000 0
DWIDTH 16 0
BBX 16 4 0 3
BITMAP
3FFC
F3CF
F3CF
3FFC
ENDCHAR
STARTCHAR 221F
ENCODING 8735
SWIDTH 1000 0
DWIDTH 16 0
BBX 14 4 2 3
BITMAP
F000
F000
F000
FFFC
ENDCHAR
STARTCHAR 2229
ENCODING 8745
SWIDTH 1000 0
DWIDTH 16 0
BBX 13 10 2 0
BITMAP
1FC0
78F0
F078
F078
F078
F078
F078
F078
F078
F078
ENDCHAR
STARTCHAR 2248
ENCODING 8776
SWIDTH 1000 0
DWIDTH 16 0
BBX 14 5 2 3
BITMAP
3F3C
F3F0
0000
3F3C
F3F0
ENDCHAR
STARTCHAR 2261
ENCODING 8801
SWIDTH 1000 0
DWIDTH 16 0
BBX 13 7 2 2
BITMAP
FFF8
0000
0000
FFF8
0000
0000
FFF8
ENDCHAR
STARTCHAR 2264
ENCODING 8804
SWIDTH 1000 0
DWIDTH 16 0
BBX 12 9 2 1
BITMAP
03C0
0F00
3C00
F000
3C00
0F00
03C0
0000
FFF0
ENDCHAR
STARTCHAR 2265
ENCODING 8805
SWIDTH 1000 0
DWIDTH 16 0
BBX 12 9 2 1
BITMAP
3C00
0F00
03C0
00F0
03C0
0F00
3C00
0000
FFF0
ENDCHAR
STARTCHAR 2302
ENCODING 8962
SWIDTH 1000 0
DWIDTH 16 0
BBX 14 6 2 3
BITMAP
0300
0FC0
3CF0
F03C
F03C
FFFC
ENDCHAR
STARTCHAR 2310
ENCODING 8976
SWIDTH 1000 0
DWIDTH 16 0
BBX 14 4 2 2
BITMAP
FFFC
F000
F000
F000
ENDCHAR
STARTCHAR 2320
ENCODING 8992
SWIDTH 1000 0
DWIDTH 16 0
BBX 10 14 6 -3
BITMAP
3F00
F3C0
F3C0
F000
F000
F000
F000
F000
F000
F000
F000
F000
F000
F000
ENDCHAR
STARTCHAR 2321
ENCODING 8993
SWIDTH 1000 0
DWIDTH 16 0
BBX 10 13 0 0
BITMAP
03C0
03C0
03C0
03C0
03C0
03C0
03C0
03C0
03C0
03C0
F3C0
F3C0
3F00
ENDCHAR
STARTCHAR 2500
ENCODING 9472
SWIDTH 1000 0
DWIDTH 16 0
BBX 16 1 0 4
BITMAP
FFFF
ENDCHAR
STARTCHAR 2502
ENCODING 9474
SWIDTH 1000 0
DWIDTH 16 0
BBX 4 16 6 -3
BITMAP
F0
F0
F0
F0
F0
F0
F0
F0
F0
F0
F0
F0
F0
F0
F0
F0
ENDCHAR
STARTCHAR 250C
ENCODING 9484
SWIDTH 1000 0
DWIDTH 16 0
BBX 10 8 6 -3
BITMAP
FFC0
F000
F000
F000
F000
F000
F000
F000
ENDCHAR
STARTCHAR 2510
ENCODING 9488
SWIDTH 1000 0
DWIDTH 16 0
BBX 10 8 0 -3
BITMAP
FFC0
03C0
03C0
03C0
03C0
03C0
03C0
03C0
ENDCHAR
STARTCHAR 2514
ENCODING 9492
SWIDTH 1000 0
DWIDTH 16 0
BBX 10 9 6 4
BITMAP
F000
F000
F000
F000
F000
F000
F000
F000
FFC0
ENDCHAR
STARTCHAR 2518
ENCODING 9496
SWIDTH 1000 0
DWIDTH 16 0
BBX 10 9 0 4
BITMAP
03C0
03C0
03C0
03C0
03C0
03C0
03C0
03C0
FFC0
ENDCHAR
STARTCHAR 251C
ENCODING 9500
SWIDTH 1000 0
DWIDTH 16 0
BBX 10 16 6 -3
BITMAP
F000
F000
F000
F000
F000
F000
F000
F000
FFC0
F000
F000
F000
F000
F000
F000
F000
ENDCHAR
STARTCHAR 2524
ENCODING 9508
SWIDTH 1000 0
DWIDTH 16 0
BBX 10 16 0 -3
BITMAP
03C0
03C0
03C0
03C0
03C0
03C0
03C0
03C0
FFC0
03C0
03C0
03C0
03C0
03C0
03C0
03C0
ENDCHAR
STARTCHAR 252C
ENCODING 9516
SWIDTH 1000 0
DWIDTH 16 0
BBX 16 8 0 -3
BITMAP
FFFF
03C0
03C0
03C0
03C0
03C0
03C0
03C0
ENDCHAR
STARTCHAR 2534
ENCODING 9524
SWIDTH 1000 0
DWIDTH 16 0
BBX 16 9 0 4
BITMAP
03C0
03C0
03C0
03C0
03C0
03C0
03C0
03C0
FFFF
ENDCHAR
STARTCHAR 253C
ENCODING 9532
SWIDTH 1000 0
DWIDTH 16 0
BBX 16 16 0 -3
BITMAP
03C0
03C0
03C0
03C0
03C0
03C0
03C0
03C0
FFFF
03C0
03C0
03C0
03C0
03C0
03C0
03C0
ENDCHAR
STARTCHAR 2550
ENCODING 9552
SWIDTH 1000 0
DWIDTH 16 0
BBX 16 3 0 4
BITMAP
FFFF
0000
FFFF
ENDCHAR
STARTCHAR 2551
ENCODING 9553
SWIDTH 1000 0
DWIDTH 16 0
BBX 10 16 4 -3
BITMAP
F3C0
F3C0
F3C0
F3C0
F3C0
F3C0
F3C0
F3C0
F3C0
F3C0
F3C0
F3C0
F3C0
F3C0
F3C0
F3C0
ENDCHAR
STARTCHAR 2552
ENCODING 9554
SWIDTH 1000 0
DWIDTH 16 0
BBX 10 10 6 -3
BITMAP
FFC0
F000
FFC0
F000
F000
F000
F000
F000
F000
F000
ENDCHAR
STARTCHAR 2553
ENCODING 9555
SWIDTH 1000 0
DWIDTH 16 0
BBX 12 8 4 -3
BITMAP
FFF0
F3C0
F3C0
F3C0
F3C0
F3C0
F3C0
F3C0
ENDCHAR
STARTCHAR 2554
ENCODING 9556
SWIDTH 1000 0
DWIDTH 16 0
BBX 12 10 4 -3
BITMAP
FFF0
F000
F3F0
F3C0
F3C0
F3C0
F3C0
F3C0
F3C0
F3C0
ENDCHAR
STARTCHAR 2555
ENCODING 9557
SWIDTH 1000 0
DWIDTH 16 0
BBX 10 10 0 -3
BITMAP
FFC0
03C0
FFC0
03C0
03C0
03C0
03C0
03C0
03C0
03C0
ENDCHAR
STARTCHAR 2556
ENCODING 9558
SWIDTH 1000 0
DWIDTH 16 0
BBX 14 8 0 -3
BITMAP
FFFC
0F3C
0F3C
0F3C
0F3C
0F3C
0F3C
0F3C
ENDCHAR
STARTCHAR 2557
ENCODING 9559
SWIDTH 1000 0
DWIDTH 16 0
BBX 14 10 0 -3
BITMAP
FFFC
003C
FF3C
0F3C
0F3C
0F3C
0F3C
0F3C
0F3C
0F3C
ENDCHAR
STARTCHAR 2558
ENCODING 9560
SWIDTH 1000 0
DWIDTH 16 0
BBX 10 9 6 4
BITMAP
F000
F000
F000
F000
F000
F000
FFC0
F000
FFC0
ENDCHAR
STARTCHAR 2559
ENCODING 9561
SWIDTH 1000 0
DWIDTH 16 0
BBX 12 9 4 4
BITMAP
F3C0
F3C0
F3C0
F3C0
F3C0
F3C0
F3C0
F3C0
FFF0
ENDCHAR
STARTCHAR 255A
ENCODING 9562
SWIDTH 1000 0
DWIDTH 16 0
BBX 12 9 4 4
BITMAP
F3C0
F3C0
F3C0
F3C0
F3C0
F3C0
F3F0
F000
FFF0
ENDCHAR
STARTCHAR 255B
ENCODING 9563
SWIDTH 1000 0
DWIDTH 16 0
BBX 10 9 0 4
BITMAP
03C0
03C0
03C0
03C0
03C0
03C0
FFC0
03C0
FFC0
ENDCHAR
STARTCHAR 255C
ENCODING 9564
SWIDTH 1000 0
DWIDTH 16 0
BBX 14 9 0 4
BITMAP
0F3C
0F3C
0F3C
0F3C
0F3C
0F3C
0F3C
0F3C
FFFC
ENDCHAR
STARTCHAR 255D
ENCODING 9565
SWIDTH 1000 0
DWIDTH 16 0
BBX 14 9 0 4
BITMAP
0F3C
0F3C
0F3C
0F3C
0F3C
0F3C
FF3C
003C
FFFC
ENDCHAR
STARTCHAR 255E
ENCODING 9566
SWIDTH 1000 0
DWIDTH 16 0
BBX 10 16 6 -3
BITMAP
F000
F000
F000
F000
F000
F000
FFC0
F000
FFC0
F000
F000
F000
F000
F000
F000
F000
ENDCHAR
STARTCHAR 255F
ENCODING 9567
SWIDTH 1000 0
DWIDTH 16 0
BBX 12 16 4 -3
BITMAP
F3C0
F3C0
F3C0
F3C0
F3C0
F3C0
F3C0
F3C0
F3F0
F3C0
F3C0
F3C0
F3C0
F3C0
F3C0
F3C0
ENDCHAR
STARTCHAR 2560
ENCODING 9568
SWIDTH 1000 0
DWIDTH 16 0
BBX 12 16 4 -3
BITMAP
F3C0
F3C0
F3C0
F3C0
F3C0
F3C0
F3F0
F000
F3F0
F3C0
F3C0
F3C0
F3C0
F3C0
F3C0
F3C0
ENDCHAR
STARTCHAR 2561
ENCODING 9569
SWIDTH 1000 0
DWIDTH 16 0
BBX 10 16 0 -3
BITMAP
03C0
03C0
03C0
03C0
03C0
03C0
FFC0
03C0
FFC0
03C0
03C0
03C0
03C0
03C0
03C0
03C0
ENDCHAR
STARTCHAR 2562
ENCODING 9570
SWIDTH 1000 0
DWIDTH 16 0
BBX 14 16 0 -3
BITMAP
0F3C
0F3C
0F3C
0F3C
0F3C
0F3C
0F3C
0F3C
FF3C
0F3C
0F3C
0F3C
0F3C
0F3C
0F3C
0F3C
ENDCHAR
STARTCHAR 2563
ENCODING 9571
SWIDTH 1000 0
DWIDTH 16 0
BBX 14 16 0 -3
BITMAP
0F3C
0F3C
0F3C
0F3C
0F3C
0F3C
FF3C
003C
FF3C
0F3C
0F3C
0F3C
0F3C
0F3C
0F3C
0F3C
ENDCHAR
STARTCHAR 2564
ENCODING 9572
SWIDTH 1000 0
DWIDTH 16 0
BBX 16 10 0 -3
BITMAP
FFFF
0000
FFFF
03C0
03C0
03C0
03C0
03C0
03C0
03C0
ENDCHAR
STARTCHAR 2565
ENCODING 9573
SWIDTH 1000 0
DWIDTH 16 0
BBX 16 8 0 -3
BITMAP
FFFF
0F3C
0F3C
0F3C
0F3C
0F3C
0F3C
0F3C
ENDCHAR
STARTCHAR 2566
ENCODING 9574
SWIDTH 1000 0
DWIDTH 16 0
BBX 16 10 0 -3
BITMAP
FFFF
0000
FF3F
0F3C
0F3C
0F3C
0F3C
0F3C
0F3C
0F3C
ENDCHAR
STARTCHAR 2567
ENCODING 9575
SWIDTH 1000 0
DWIDTH 16 0
BBX 16 9 0 4
BITMAP
03C0
03C0
03C0
03C0
03C0
03C0
FFFF
0000
FFFF
ENDCHAR
STARTCHAR 2568
ENCODING 9576
SWIDTH 1000 0
DWIDTH 16 0
BBX 16 9 0 4
BITMAP
0F3C
0F3C
0F3C
0F3C
0F3C
0F3C
0F3C
0F3C
FFFF
ENDCHAR
STARTCHAR 2569
ENCODING 9577
SWIDTH 1000 0
DWIDTH 16 0
BBX 16 9 0 4
BITMAP
0F3C
0F3C
0F3C
0F3C
0F3C
0F3C
FF3F
0000
FFFF
ENDCHAR
STARTCHAR 256A
ENCODING 9578
SWIDTH 1000 0
DWIDTH 16 0
BBX 16 16 0 -3
BITMAP
03C0
03C0
03C0
03C0
03C0
03C0
FFFF
03C0
FFFF
03C0
03C0
03C0
03C0
03C0
03C0
03C0
ENDCHAR
STARTCHAR 256B
ENCODING 9579
SWIDTH 1000 0
DWIDTH 16 0
BBX 16 16 0 -3
BITMAP
0F3C
0F3C
0F3C
0F3C
0F3C
0F3C
0F3C
0F3C
FFFF
0F3C
0F3C
0F3C
0F3C
0F3C
0F3C
0F3C
ENDCHAR
STARTCHAR 256C
ENCODING 9580
SWIDTH 1000 0
DWIDTH 16 0
BBX 16 16 0 -3
BITMAP
0F3C
0F3C
0F3C
0F3C
0F3C
0F3C
FF3F
0000
FF3F
0F3C
0F3C
0F3C
0F3C
0F3C
0F3C
0F3C
ENDCHAR
STARTCHAR 2580
ENCODING 9600
SWIDTH 1000 0
DWIDTH 16 0
BBX 16 8 0 5
BITMAP
FFFF
FFFF
FFFF
FFFF
FFFF
FFFF
FFFF
FFFF
ENDCHAR
STARTCHAR 2584
ENCODING 9604
SWIDTH 1000 0
DWIDTH 16 0
BBX 16 8 0 -3
BITMAP
FFFF
FFFF
FFFF
FFFF
FFFF
FFFF
FFFF
FFFF
ENDCHAR
STARTCHAR 2588
ENCODING 9608
SWIDTH 1000 0
DWIDTH 16 0
BBX 16 16 0 -3
BITMAP
FFFF
FFFF
FFFF
FFFF
FFFF
FFFF
FFFF
FFFF
FFFF
FFFF
FFFF
FFFF
FFFF
FFFF
FFFF
FFFF
ENDCHAR
STARTCHAR 258C
ENCODING 9612
SWIDTH 1000 0
DWIDTH 16 0
BBX 8 16 0 -3
BITMAP
FF
FF
FF
FF
FF
FF
FF
FF
FF
FF
FF
FF
FF
FF
FF
FF
ENDCHAR
STARTCHAR 2590
ENCODING 9616
SWIDTH 1000 0
DWIDTH 16 0
BBX 8 16 8 -3
BITMAP
FF
FF
FF
FF
FF
FF
FF
FF
FF
FF
FF
FF
FF
FF
FF
FF
ENDCHAR
STARTCHAR 2591
ENCODING 9617
SWIDTH 1000 0
DWIDTH 16 0
BBX 14 16 2 -3
BITMAP
0C0C
C0C0
0C0C
C0C0
0C0C
C0C0
0C0C
C0C0
0C0C
C0C0
0C0C
C0C0
0C0C
C0C0
0C0C
C0C0
ENDCHAR
STARTCHAR 2592
ENCODING 9618
SWIDTH 1000 0
DWIDTH 16 0
BBX 16 16 0 -3
BITMAP
3333
CCCC
3333
CCCC
3333
CCCC
3333
CCCC
3333
CCCC
3333
CCCC
3333
CCCC
3333
CCCC
ENDCHAR
STARTCHAR 2593
ENCODING 9619
SWIDTH 1000 0
DWIDTH 16 0
BBX 16 16 0 -3
BITMAP
F3F3
3F3F
F3F3
3F3F
F3F3
3F3F
F3F3
3F3F
F3F3
3F3F
F3F3
3F3F
F3F3
3F3F
F3F3
3F3F
ENDCHAR
STARTCHAR 25A0
ENCODING 9632
SWIDTH 1000 0
DWIDTH 16 0
BBX 10 6 4 2
BITMAP
FFC0
FFC0
FFC0
FFC0
FFC0
FFC0
ENDCHAR
STARTCHAR 25AC
ENCODING 9644
SWIDTH 1000 0
DWIDTH 16 0
BBX 14 3 2 0
BITMAP
FFFC
FFFC
FFFC
ENDCHAR
STARTCHAR 25B2
ENCODING 9650
SWIDTH 1000 0
DWIDTH 16 0
BBX 14 7 1 2
BITMAP
0300
0780
0FC0
1FE0
3FF0
7FF8
FFFC
ENDCHAR
STARTCHAR 25BA
ENCODING 9658
SWIDTH 1000 0
DWIDTH 16 0
BBX 12 11 2 0
BITMAP
C000
F000
FC00
FF00
FFC0
FFF0
FFC0
FF00
FC00
F000
C000
ENDCHAR
STARTCHAR 25BC
ENCODING 9660
SWIDTH 1000 0
DWIDTH 16 0
BBX 14 7 1 2
BITMAP
FFFC
7FF8
3FF0
1FE0
0FC0
0780
0300
ENDCHAR
STARTCHAR 25C4
ENCODING 9668
SWIDTH 1000 0
DWIDTH 16 0
BBX 12 11 2 0
BITMAP
0030
00F0
03F0
0FF0
3FF0
FFF0
3FF0
0FF0
03F0
00F0
0030
ENDCHAR
STARTCHAR 25CB
ENCODING 9675
SWIDTH 1000 0
DWIDTH 16 0
BBX 12 6 2 2
BITMAP
3FC0
F0F0
C030
C030
F0F0
3FC0
ENDCHAR
STARTCHAR 25D8
ENCODING 9688
SWIDTH 1000 0
DWIDTH 16 0
BBX 16 16 0 -3
BITMAP
FFFF
FFFF
FFFF
FFFF
FFFF
FFFF
FC3F
F00F
F00F
FC3F
FFFF
FFFF
FFFF
FFFF
FFFF
FFFF
ENDCHAR
STARTCHAR 25D9
ENCODING 9689
SWIDTH 1000 0
DWIDTH 16 0
BBX 16 16 0 -3
BITMAP
FFFF
FFFF
FFFF
FFFF
FFFF
F00F
C3C3
CFF3
CFF3
C3C3
F00F
FFFF
FFFF
FFFF
FFFF
FFFF
ENDCHAR
STARTCHAR 263A
ENCODING 9786
SWIDTH 1000 0
DWIDTH 16 0
BBX 16 11 0 0
BITMAP
3FFC
6006
C003
CC33
C003
C003
CFF3
C3C3
C003
6006
3FFC
ENDCHAR
STARTCHAR 263B
ENCODING 9787
SWIDTH 1000 0
DWIDTH 16 0
BBX 16 11 0 0
BITMAP
3FFC
7FFE
FFFF
F3CF
FFFF
FFFF
F00F
FC3F
FFFF
7FFE
3FFC
ENDCHAR
STARTCHAR 263C
ENCODING 9788
SWIDTH 1000 0
DWIDTH 16 0
BBX 16 9 0 1
BITMAP
03C0
03C0
F3CF
0FF0
FC3F
0FF0
F3CF
03C0
03C0
ENDCHAR
STARTCHAR 2640
ENCODING 9792
SWIDTH 1000 0
DWIDTH 16 0
BBX 12 11 2 0
BITMAP
1F80
79E0
F0F0
F0F0
79E0
1F80
0F00
0F00
FFF0
0F00
0F00
ENDCHAR
STARTCHAR 2642
ENCODING 9794
SWIDTH 1000 0
DWIDTH 16 0
BBX 14 10 2 0
BITMAP
01FC
007C
00FC
01EC
1FC0
79E0
F0F0
F0F0
79E0
1F80
ENDCHAR
STARTCHAR 2660
ENCODING 9824
SWIDTH 1000 0
DWIDTH 16 0
BBX 16 11 0 0
BITMAP
03C0
0FF0
3FFC
FFFF
FFFF
FFFF
3FFC
03C0
03C0
03C0
0FF0
ENDCHAR
STARTCHAR 2663
ENCODING 9827
SWIDTH 1000 0
DWIDTH 16 0
BBX 14 11 1 0
BITMAP
0780
0FC0
0FC0
7878
F87C
F87C
7878
0780
0780
0780
1FE0
ENDCHAR
STARTCHAR 2665
ENCODING 9829
SWIDTH 1000 0
DWIDTH 16 0
BBX 14 9 1 1
BITMAP
3CF0
7FF8
FFFC
FFFC
FFFC
7FF8
3FF0
0FC0
0300
ENDCHAR
STARTCHAR 2666
ENCODING 9830
SWIDTH 1000 0
DWIDTH 16 0
BBX 10 9 3 1
BITMAP
0C00
1E00
3F00
7F80
FFC0
7F80
3F00
1E00
0C00
ENDCHAR
STARTCHAR 266A
ENCODING 9834
SWIDTH 1000 0
DWIDTH 16 0
BBX 15 11 1 0
BITMAP
1FFE
1E1E
1FFE
1E00
1E00
1E00
1E00
1E00
7E00
FE00
7C00
ENDCHAR
STARTCHAR 266B
ENCODING 9835
SWIDTH 1000 0
DWIDTH 16 0
BBX 14 12 1 -1
BITMAP
3FFC
3C3C
3FFC
3C3C
3C3C
3C3C
3C3C
3C3C
3C7C
7CFC
FC78
7800
ENDCHAR
ENDFONT
